<?xml version="1.0" encoding="UTF-8" standalone="no"?>
<svg xmlns="http://www.w3.org/2000/svg" xmlns:xlink="http://www.w3.org/1999/xlink" height="2625" overflow="hidden" viewBox="0 0 2381.0 2625.0" width="2381" xml:space="preserve"><defs><clipPath id="clip0"><rect height="2625" width="2381" x="1320" y="381"/></clipPath></defs><g clip-path="url(#clip0)" transform="translate(-1320 -381)"><g><rect fill="#767775" height="42" stroke="#767775" stroke-linejoin="round" stroke-miterlimit="10" stroke-width="3.4375" width="146" x="1904.5" y="2824.5"/></g><g><rect fill="#124A71" height="41" stroke="#12436D" stroke-linejoin="round" stroke-miterlimit="10" stroke-width="3.4375" width="567" x="1904.5" y="2676.5"/></g><g><rect fill="#12436D" height="40.9999" stroke="#12436D" stroke-linejoin="round" stroke-miterlimit="10" stroke-width="3.4375" width="766" x="1904.5" y="1933.5"/></g><g><rect fill="#124A71" height="41.0002" stroke="#12436D" stroke-linejoin="round" stroke-miterlimit="10" stroke-width="3.4375" width="779" x="1904.5" y="1784.5"/></g><g><rect fill="#12436D" height="42.0002" stroke="#12436D" stroke-linejoin="round" stroke-miterlimit="10" stroke-width="3.4375" width="872" x="1904.5" y="1189.5"/></g><g><rect fill="#28A197" height="40.9999" stroke="#28A197" stroke-linejoin="round" stroke-miterlimit="10" stroke-width="3.4375" width="911" x="1904.5" y="1041.5"/></g><g><path d="M2332.58 2791.59 1904.5 2791.59 1904.5 2750.59 2332.58 2750.59ZM2476.58 2643.59 1904.5 2643.59 1904.5 2601.59 2476.58 2601.59ZM2500.58 2568.58 1904.5 2568.58 1904.5 2527.58 2500.58 2527.58ZM2502.58 2494.58 1904.5 2494.58 1904.5 2453.58 2502.58 2453.58ZM2511.58 2420.58 1904.5 2420.58 1904.5 2378.58 2511.58 2378.58ZM2519.58 2345.58 1904.5 2345.58 1904.5 2304.58 2519.58 2304.58ZM2579.58 2271.57 1904.5 2271.57 1904.5 2230.57 2579.58 2230.57ZM2617.59 2197.57 1904.5 2197.57 1904.5 2155.57 2617.59 2155.57ZM2631.59 2122.57 1904.5 2122.57 1904.5 2081.57 2631.59 2081.57ZM2664.59 2048.57 1904.5 2048.57 1904.5 2007.57 2664.59 2007.57ZM2680.59 1899.56 1904.5 1899.56 1904.5 1858.56 2680.59 1858.56ZM2694.59 1751.56 1904.5 1751.56 1904.5 1710.56 2694.59 1710.56ZM2709.59 1677.56 1904.5 1677.56 1904.5 1635.55 2709.59 1635.55ZM2720.59 1602.55 1904.5 1602.55 1904.5 1561.55 2720.59 1561.55ZM2736.59 1528.55 1904.5 1528.55 1904.5 1487.55 2736.59 1487.55ZM2739.59 1454.55 1904.5 1454.55 1904.5 1412.55 2739.59 1412.55ZM2751.59 1379.55 1904.5 1379.55 1904.5 1338.54 2751.59 1338.54ZM2773.59 1305.54 1904.5 1305.54 1904.5 1264.54 2773.59 1264.54ZM2786.59 1156.54 1904.5 1156.54 1904.5 1115.54 2786.59 1115.54ZM2837.59 1008.53 1904.5 1008.53 1904.5 967.532 2837.59 967.532ZM2861.59 933.531 1904.5 933.531 1904.5 892.529 2861.59 892.529ZM2946.6 859.528 1904.5 859.528 1904.5 818.527 2946.6 818.527ZM3005.6 785.526 1904.5 785.526 1904.5 744.525 3005.6 744.525ZM3226.61 711.524 1904.5 711.524 1904.5 669.522 3226.61 669.522ZM3323.61 636.521 1904.5 636.521 1904.5 595.52 3323.61 595.52ZM3325.61 562.519 1904.5 562.519 1904.5 521.517 3325.61 521.517ZM3429.61 488.516 1904.5 488.516 1904.5 446.515 3429.61 446.515Z" fill="#124A71" stroke="#12436D" stroke-linejoin="round" stroke-miterlimit="10" stroke-width="3.4375"/></g><g><path d="M0 0 0.000360892 2452" fill="none" fill-rule="evenodd" stroke="#D9D9D9" stroke-linejoin="round" stroke-miterlimit="10" stroke-width="3.4375" transform="matrix(1 0 0 -1 1904.5 2882.5)"/></g><g><text fill="#767775" font-family="Arial,Arial_MSFontService,sans-serif" font-size="50" font-weight="400" transform="matrix(1 0 0 1 2078.4 2863)">21</text></g><g><text fill="#404040" font-family="Arial,Arial_MSFontService,sans-serif" font-size="50" font-weight="400" transform="matrix(1 0 0 1 2359.6 2789)">63</text></g><g><text fill="#404040" font-family="Arial,Arial_MSFontService,sans-serif" font-size="50" font-weight="400" transform="matrix(1 0 0 1 2843.32 1080)">133</text></g><g><text fill="#404040" font-family="Arial,Arial_MSFontService,sans-serif" font-size="50" font-weight="400" transform="matrix(1 0 0 1 3457.56 486)">223</text></g><g><text fill="#595959" font-family="Arial,Arial_MSFontService,sans-serif" font-size="55" font-weight="400" transform="matrix(1 0 0 1 1356.11 2863)">East Dunbartonshire</text></g><g><text fill="#595959" font-family="Arial,Arial_MSFontService,sans-serif" font-size="55" font-weight="400" transform="matrix(1 0 0 1 1499.78 2789)">Aberdeenshire</text></g><g><text fill="#595959" font-family="Arial,Arial_MSFontService,sans-serif" font-size="55" font-weight="400" transform="matrix(1 0 0 1 1591.56 2715)">Eilean Siar</text></g><g><text fill="#595959" font-family="Arial,Arial_MSFontService,sans-serif" font-size="55" font-weight="400" transform="matrix(1 0 0 1 1704.74 2640)">Moray</text></g><g><text fill="#595959" font-family="Arial,Arial_MSFontService,sans-serif" font-size="55" font-weight="400" transform="matrix(1 0 0 1 1680.27 2566)">Orkney</text></g><g><text fill="#595959" font-family="Arial,Arial_MSFontService,sans-serif" font-size="55" font-weight="400" transform="matrix(1 0 0 1 1408.18 2492)">East Renfrewshire</text></g><g><text fill="#595959" font-family="Arial,Arial_MSFontService,sans-serif" font-size="55" font-weight="400" transform="matrix(1 0 0 1 1539.61 2417)">Argyll &amp; Bute</text></g><g><text fill="#595959" font-family="Arial,Arial_MSFontService,sans-serif" font-size="55" font-weight="400" transform="matrix(1 0 0 1 1640.39 2343)">Shetland</text></g><g><text fill="#595959" font-family="Arial,Arial_MSFontService,sans-serif" font-size="55" font-weight="400" transform="matrix(1 0 0 1 1606.87 2269)">Inverclyde</text></g><g><text fill="#595959" font-family="Arial,Arial_MSFontService,sans-serif" font-size="55" font-weight="400" transform="matrix(1 0 0 1 1533.53 2194)">Renfrewshire</text></g><g><text fill="#595959" font-family="Arial,Arial_MSFontService,sans-serif" font-size="55" font-weight="400" transform="matrix(1 0 0 1 1475.42 2120)">Perth &amp; Kinross</text></g><g><text fill="#595959" font-family="Arial,Arial_MSFontService,sans-serif" font-size="55" font-weight="400" transform="matrix(1 0 0 1 1454.01 2046)">Scottish Borders</text></g><g><text fill="#595959" font-family="Arial,Arial_MSFontService,sans-serif" font-size="55" font-weight="400" transform="matrix(1 0 0 1 1701.58 1971)">Angus</text></g><g><text fill="#595959" font-family="Arial,Arial_MSFontService,sans-serif" font-size="55" font-weight="400" transform="matrix(1 0 0 1 1530.49 1897)">East Ayrshire</text></g><g><text fill="#595959" font-family="Arial,Arial_MSFontService,sans-serif" font-size="55" font-weight="400" transform="matrix(1 0 0 1 1640.44 1823)">Highland</text></g><g><text fill="#595959" font-family="Arial,Arial_MSFontService,sans-serif" font-size="55" font-weight="400" transform="matrix(1 0 0 1 1551.73 1748)">East Lothian</text></g><g><text fill="#595959" font-family="Arial,Arial_MSFontService,sans-serif" font-size="55" font-weight="400" transform="matrix(1 0 0 1 1536.51 1674)">West Lothian</text></g><g><text fill="#595959" font-family="Arial,Arial_MSFontService,sans-serif" font-size="55" font-weight="400" transform="matrix(1 0 0 1 1695.62 1600)">Falkirk</text></g><g><text fill="#595959" font-family="Arial,Arial_MSFontService,sans-serif" font-size="55" font-weight="400" transform="matrix(1 0 0 1 1765.86 1526)">Fife</text></g><g><text fill="#595959" font-family="Arial,Arial_MSFontService,sans-serif" font-size="55" font-weight="400" transform="matrix(1 0 0 1 1496.8 1451)">South Ayrshire</text></g><g><text fill="#595959" font-family="Arial,Arial_MSFontService,sans-serif" font-size="55" font-weight="400" transform="matrix(1 0 0 1 1689.44 1377)">Stirling</text></g><g><text fill="#595959" font-family="Arial,Arial_MSFontService,sans-serif" font-size="55" font-weight="400" transform="matrix(1 0 0 1 1508.99 1303)">Aberdeen City</text></g><g><text fill="#595959" font-family="Arial,Arial_MSFontService,sans-serif" font-size="55" font-weight="400" transform="matrix(1 0 0 1 1420.37 1228)">North Lanarkshire</text></g><g><text fill="#595959" font-family="Arial,Arial_MSFontService,sans-serif" font-size="55" font-weight="400" transform="matrix(1 0 0 1 1344.06 1154)">Dumfries &amp; Galloway</text></g><g><text fill="#595959" font-family="Arial,Arial_MSFontService,sans-serif" font-size="55" font-weight="400" transform="matrix(1 0 0 1 1643.49 1080)">Scotland</text></g><g><text fill="#595959" font-family="Arial,Arial_MSFontService,sans-serif" font-size="55" font-weight="400" transform="matrix(1 0 0 1 1411.11 1005)">South Lanarkshire</text></g><g><text fill="#595959" font-family="Arial,Arial_MSFontService,sans-serif" font-size="55" font-weight="400" transform="matrix(1 0 0 1 1606.78 931)">Edinburgh</text></g><g><text fill="#595959" font-family="Arial,Arial_MSFontService,sans-serif" font-size="55" font-weight="400" transform="matrix(1 0 0 1 1506.06 857)">North Ayrshire</text></g><g><text fill="#595959" font-family="Arial,Arial_MSFontService,sans-serif" font-size="55" font-weight="400" transform="matrix(1 0 0 1 1606.84 782)">Midlothian</text></g><g><text fill="#595959" font-family="Arial,Arial_MSFontService,sans-serif" font-size="55" font-weight="400" transform="matrix(1 0 0 1 1554.87 708)">Dundee City</text></g><g><text fill="#595959" font-family="Arial,Arial_MSFontService,sans-serif" font-size="55" font-weight="400" transform="matrix(1 0 0 1 1402.04 634)">Clackmannanshire</text></g><g><text fill="#595959" font-family="Arial,Arial_MSFontService,sans-serif" font-size="55" font-weight="400" transform="matrix(1 0 0 1 1340.89 559)">West Dunbartonshire</text></g><g><text fill="#595959" font-family="Arial,Arial_MSFontService,sans-serif" font-size="55" font-weight="400" transform="matrix(1 0 0 1 1533.56 485)">Glasgow City</text></g></g></svg>
